<svg width="43" height="48" viewBox="0 0 43 48" fill="none" xmlns="http://www.w3.org/2000/svg">
<path d="M42.9405 36.8773C42.5826 35.3309 40.9724 35.3309 39.6603 35.2119C38.4675 34.4387 36.4994 34.4981 35.0681 34.3792C33.1596 31.2268 31.8475 27.539 30.6547 23.9703C30.118 22.3048 29.5812 20.6394 29.0445 19.0929C26.8975 13.0855 24.8697 7.01859 23.2595 0.832714C23.1402 0.475836 22.842 0.297398 22.5438 0.237918C22.4841 0.237918 22.4245 0.237918 22.4245 0.237918C21.4703 0.178439 20.5757 0.118959 19.6215 0.0594796C19.3233 0.0594796 19.0847 0 18.7865 0C18.369 0 18.0708 0.356877 17.9516 0.713755C14.3136 12.2528 10.2581 23.6134 6.56043 35.0929C6.50079 35.2714 6.44115 35.4498 6.38151 35.6283C6.08332 35.6283 5.78512 35.6877 5.54656 35.7472C5.42728 35.7472 5.36764 35.6877 5.24837 35.7472C3.75738 36.1041 1.55072 37.5316 0.95433 38.8996C0.894691 38.8996 0.835052 38.8996 0.775412 38.9591C0.596494 39.0186 0.477215 39.1375 0.477215 39.3755C0.477215 39.6729 0.417576 40.0297 0.357936 40.3271C0.357936 40.5056 0.298297 40.684 0.298297 40.8624C0.179018 41.6952 0.0597395 42.5874 0.119379 43.3606C0.179018 44.1338 0.357936 44.8476 0.775412 45.3829C1.07361 45.7398 1.49108 45.9777 2.08748 46.1561C5.96404 47.3457 10.3774 47.7026 14.4328 47.881C14.6714 47.881 14.9696 47.881 15.2081 47.9405C19.204 48.119 23.2595 48 27.1957 47.4647C27.8517 47.4052 28.5077 47.2862 29.1638 47.2268C31.9668 46.8104 35.247 46.3941 38.1097 45.4424C39.1832 45.0855 40.2567 44.6097 41.2109 44.0743C41.2706 44.0743 41.2706 44.0149 41.3302 43.9554C41.5091 43.9554 41.6284 43.9554 41.7477 43.9554C42.3441 43.8364 42.7019 43.3011 42.7615 42.5874C42.7615 42.5279 42.7615 42.4684 42.7615 42.4089C42.8808 40.9814 43.0001 39.4944 42.9405 38.0669C43.0001 37.71 43.0597 37.3532 42.9405 36.8773ZM34.2331 36.5799C30.9529 37.2342 27.6728 37.829 24.2733 38.0074C23.5577 38.0669 22.842 38.0074 22.1263 38.0074C25.5854 36.5799 28.9252 34.4981 31.7283 32.0595C32.4439 33.6654 33.2789 35.2119 34.2331 36.5799ZM16.878 9.69517C17.8323 9.21933 18.7865 8.74349 19.7407 8.1487C20.8142 7.5539 22.007 6.89963 22.9016 6.00743C23.7366 8.80297 24.5715 11.539 25.5258 14.2751C23.1402 15.5242 20.8739 16.9517 18.548 18.2007C16.8184 19.0929 15.0292 19.9256 13.24 20.8178C14.4328 17.1301 15.6853 13.4424 16.878 9.69517ZM24.3926 16.7138C24.6312 16.5353 24.9294 16.3569 25.1679 16.1784C25.2872 16.119 25.4065 16 25.5258 15.9405C25.645 15.8216 25.824 15.7621 25.9432 15.6431C26.0029 15.7621 26.0029 15.881 26.0625 16C26.5993 17.5465 27.136 19.0929 27.6728 20.5799C27.971 21.3532 28.2095 22.1264 28.4481 22.8996C24.989 23.9703 21.7685 25.6357 18.548 27.2416C15.4467 28.7286 12.2262 30.0967 9.18457 31.7621C10.3177 28.7286 11.4509 25.6952 12.5244 22.6617C16.5202 21.4126 20.7546 19.1524 24.3926 16.7138ZM20.2775 1.84387C20.5757 1.84387 20.8739 1.90335 21.1721 1.90335C21.351 1.90335 21.5299 1.90335 21.7088 1.96283C21.7088 2.08178 21.7685 2.14126 21.7685 2.26022C22.007 3.2119 22.3052 4.16357 22.5438 5.05576C21.4703 5.5316 20.5161 6.36431 19.5022 7.01859C18.8461 7.43494 18.1901 7.79182 17.4744 8.20818C17.4148 8.26766 17.3552 8.26766 17.2955 8.32714C17.2955 8.20818 17.3552 8.1487 17.3552 8.02974C18.0112 6.00743 18.6672 3.98513 19.2636 1.96283V1.90335C19.6811 1.78439 19.9793 1.84387 20.2775 1.84387ZM41.032 40.5056C40.9724 41.2193 41.032 42.052 40.7934 42.7063C40.6145 42.8253 40.5549 43.0037 40.4952 43.1822C36.9765 43.4796 33.3982 44.9071 29.8794 45.5019C26.3607 46.0967 22.7823 46.3941 19.204 46.4535C15.3871 46.513 11.5701 46.2751 7.75322 45.7398C6.32188 45.5613 3.39955 45.5613 2.2664 44.7286C1.25253 44.0149 1.37181 42.29 1.49108 40.803C1.78928 40.9814 2.14712 41.1599 2.62423 41.3383C5.30801 42.2305 8.52853 42.1115 11.3316 42.29C14.8503 42.5279 18.4287 42.5874 21.9474 42.4684C27.8517 42.29 34.7102 42.29 40.197 39.7323C40.4356 39.6134 40.7338 39.4944 41.032 39.316C41.0916 39.8513 41.032 40.2082 41.032 40.5056ZM40.376 38.1264C39.0043 39.3755 35.903 39.7323 34.1735 40.0297C30.4758 40.6245 26.6589 40.8625 22.9016 41.0409C19.0251 41.2193 15.1485 41.1599 11.3316 40.9219C9.30384 40.803 7.2761 40.6245 5.30801 40.3866C4.2345 40.2677 3.45918 40.4461 2.92243 39.4349C2.20676 38.7807 2.44532 38.2453 3.57846 37.829C4.11522 37.4126 4.65197 37.1152 5.24837 36.8773C5.24837 36.8773 5.30801 36.8773 5.36764 36.8773C5.54656 36.8773 5.72548 36.8773 5.9044 36.8773C5.84476 36.9963 5.84476 37.0558 5.78512 37.1747H5.72548C5.18873 37.1747 5.24837 38.0074 5.78512 38.0074C5.84476 38.0074 5.84476 38.0074 5.84476 38.0074C6.08332 38.2454 6.56043 38.2454 6.73935 37.8885C6.91827 37.5316 7.03755 37.1747 7.15683 36.8178C7.51466 36.6989 7.63394 36.2825 7.51466 35.9851C7.8725 35.0929 8.23034 34.2007 8.58817 33.3085C15.5063 30.7509 21.7685 26.5279 28.8656 24.3866C29.5812 26.5874 30.2969 28.7881 31.1915 30.9294C30.2373 31.7026 29.2234 32.3569 28.2095 33.0706C27.3149 33.6654 26.4203 34.2602 25.4661 34.7955C23.3787 35.9851 21.2317 37.0558 18.9058 37.948C17.1166 37.829 15.3274 37.6506 13.5382 37.6506C12.8226 37.6506 12.8822 38.6022 13.419 38.7807C16.878 39.9108 21.1124 39.8513 24.6908 39.6134C27.7921 39.4349 30.8933 39.0186 33.9349 38.1859C34.0542 38.2453 34.1138 38.2453 34.2331 38.1859C34.412 38.1264 34.5313 38.0074 34.7102 37.948C35.0681 37.829 35.4855 37.71 35.8434 37.5911C36.2608 37.4721 36.3205 37.1152 36.2012 36.8178C36.2608 36.6394 36.2012 36.4015 36.0223 36.1636C35.9627 36.1041 35.9627 36.0446 35.903 36.0446C36.3801 36.1041 36.7976 36.1636 37.2747 36.1636C37.7518 36.223 38.229 36.2825 38.7061 36.223C38.9446 36.2825 39.1832 36.4015 39.3621 36.5204C40.1374 36.5204 40.6742 36.9963 40.9724 37.8885C40.8531 37.829 40.6145 38.0074 40.376 38.1264Z" fill="#1E1B1C"/>
</svg>
