<svg width="41" height="25" viewBox="0 0 41 25" fill="none" xmlns="http://www.w3.org/2000/svg">
<path d="M14.7871 0.535843C15.1635 0.879047 15.375 1.34447 15.375 1.82976C15.375 2.31505 15.1635 2.78047 14.7871 3.12368L4.84707 12.1829L14.7871 21.2422C15.1528 21.5873 15.3553 22.0496 15.3507 22.5295C15.3461 23.0094 15.1349 23.4684 14.7626 23.8077C14.3903 24.147 13.8866 24.3395 13.3601 24.3437C12.8336 24.3479 12.3264 24.1634 11.9476 23.83L0.587938 13.4768C0.211481 13.1336 0 12.6682 0 12.1829C0 11.6976 0.211481 11.2322 0.587938 10.889L11.9476 0.535843C12.3242 0.192743 12.8349 0 13.3674 0C13.8998 0 14.4105 0.192743 14.7871 0.535843Z" fill="#7D56A5"/>
<path d="M27.5996 0.535843C27.976 0.879047 28.1875 1.34447 28.1875 1.82976C28.1875 2.31505 27.976 2.78047 27.5996 3.12368L17.6596 12.1829L27.5996 21.2422C27.9653 21.5873 28.1678 22.0496 28.1632 22.5295C28.1586 23.0094 27.9474 23.4684 27.5751 23.8077C27.2028 24.147 26.6991 24.3395 26.1726 24.3437C25.6461 24.3479 25.1389 24.1634 24.7601 23.83L13.4004 13.4768C13.024 13.1336 12.8125 12.6682 12.8125 12.1829C12.8125 11.6976 13.024 11.2322 13.4004 10.889L24.7601 0.535843C25.1367 0.192743 25.6474 0 26.1799 0C26.7123 0 27.223 0.192743 27.5996 0.535843Z" fill="#7D56A5" fill-opacity="0.5"/>
<path d="M40.4121 0.535843C40.7885 0.879047 41 1.34447 41 1.82976C41 2.31505 40.7885 2.78047 40.4121 3.12368L30.4721 12.1829L40.4121 21.2422C40.7778 21.5873 40.9803 22.0496 40.9757 22.5295C40.9711 23.0094 40.7599 23.4684 40.3876 23.8077C40.0153 24.147 39.5116 24.3395 38.9851 24.3437C38.4586 24.3479 37.9514 24.1634 37.5726 23.83L26.2129 13.4768C25.8365 13.1336 25.625 12.6682 25.625 12.1829C25.625 11.6976 25.8365 11.2322 26.2129 10.889L37.5726 0.535843C37.9492 0.192743 38.4599 0 38.9924 0C39.5248 0 40.0355 0.192743 40.4121 0.535843Z" fill="#7D56A5" fill-opacity="0.2"/>
</svg>
