<svg width="396" height="353" viewBox="0 0 396 353" fill="none" xmlns="http://www.w3.org/2000/svg">
<rect x="14.1964" y="0.777611" width="380.5" height="336.5" rx="19.25" transform="rotate(2.15015 14.1964 0.777611)" fill="#7D56A5" stroke="#252525" stroke-width="1.5"/>
<rect x="7.75" y="7.797" width="380.5" height="336.5" rx="19.25" fill="#FEEFEC" stroke="#252525" stroke-width="1.5"/>
<path d="M79.5576 255.386L56 289.047H357V152.047C335.148 153.158 314.093 177.236 302.54 193.069C297.335 200.202 287.221 202.307 280.033 197.178L266.7 187.664C260.703 183.384 252.485 184.093 247.31 189.337L215.818 221.249C210.378 226.762 201.636 227.227 195.642 222.321L183.728 212.572C177.452 207.436 168.23 208.218 162.909 214.338L129.951 252.244C125.76 257.063 118.978 258.701 113.05 256.325L97.4278 250.063C90.958 247.47 83.5542 249.675 79.5576 255.386Z" fill="url(#paint0_linear_284_105)" stroke="url(#paint1_linear_284_105)"/>
<circle cx="355.256" cy="152.303" r="3.75636" fill="#FEEFEC" stroke="#F39C12" stroke-width="3"/>
<circle cx="293.256" cy="199.303" r="3.75636" fill="#FEEFEC" stroke="#F39C12" stroke-width="3"/>
<circle cx="257.256" cy="185.303" r="3.75636" fill="#FEEFEC" stroke="#F39C12" stroke-width="3"/>
<circle cx="206.256" cy="224.303" r="3.75636" fill="#FEEFEC" stroke="#F39C12" stroke-width="3"/>
<circle cx="173.256" cy="209.303" r="3.75636" fill="#FEEFEC" stroke="#F39C12" stroke-width="3"/>
<circle cx="121.256" cy="256.303" r="3.75636" fill="#FEEFEC" stroke="#F39C12" stroke-width="3"/>
<circle cx="86.2564" cy="250.303" r="3.75636" fill="#FEEFEC" stroke="#F39C12" stroke-width="3"/>
<path d="M55 116.047V289.047H358" stroke="#F39C12" stroke-width="2" stroke-linecap="round"/>
<path d="M62.2091 310.767C62.2091 307.671 57.6971 309.015 57.6971 306.855C57.6971 305.955 58.4051 305.487 59.3051 305.511C60.3251 305.523 60.8531 306.159 60.9251 306.723H62.1251C61.9931 305.451 60.9491 304.575 59.3531 304.575C57.6971 304.575 56.5811 305.511 56.5811 306.891C56.5811 309.999 61.1051 308.559 61.1051 310.815C61.1051 311.607 60.4811 312.207 59.4251 312.207C58.2611 312.207 57.7691 311.511 57.6971 310.815H56.5331C56.5571 312.195 57.7451 313.131 59.4251 313.131C61.2371 313.131 62.2091 311.955 62.2091 310.767ZM63.7921 309.963C63.7921 312.135 65.2081 313.131 66.9361 313.131C68.6641 313.131 70.0921 312.135 70.0921 309.963V304.683H69.0001V309.975C69.0001 311.511 68.1841 312.171 66.9481 312.171C65.7121 312.171 64.8841 311.511 64.8841 309.975V304.683H63.7921V309.963ZM77.3977 304.671V311.319L73.0057 304.671H71.9137V313.047H73.0057V306.387L77.3977 313.047H78.4897V304.671H77.3977Z" fill="#252525"/>
<path d="M29.608 297.047H30.712V288.371H28.456V289.367H29.608V297.047ZM32.5878 292.619C32.5878 295.139 33.2118 297.047 35.6118 297.047C37.9998 297.047 38.6237 295.139 38.6237 292.619C38.6237 290.135 37.9998 288.239 35.6118 288.239C33.2118 288.239 32.5878 290.135 32.5878 292.619ZM37.5438 292.619C37.5438 294.491 37.3158 296.051 35.6118 296.051C33.8958 296.051 33.6678 294.491 33.6678 292.619C33.6678 290.819 33.8958 289.235 35.6118 289.235C37.3158 289.235 37.5438 290.819 37.5438 292.619Z" fill="#252525"/>
<path d="M28.612 253.951H34.384V253.039H30.256C31.804 251.779 34.132 249.943 34.132 247.783C34.132 246.175 33.076 245.215 31.444 245.215C29.884 245.215 28.72 246.175 28.648 248.023H29.704C29.752 246.931 30.328 246.151 31.456 246.151C32.632 246.151 33.052 246.871 33.052 247.831C33.052 249.607 30.892 251.335 28.612 253.171V253.951ZM35.6463 249.619C35.6463 252.139 36.2703 254.047 38.6703 254.047C41.0583 254.047 41.6823 252.139 41.6823 249.619C41.6823 247.135 41.0583 245.239 38.6703 245.239C36.2703 245.239 35.6463 247.135 35.6463 249.619ZM40.6023 249.619C40.6023 251.491 40.3743 253.051 38.6703 253.051C36.9543 253.051 36.7263 251.491 36.7263 249.619C36.7263 247.819 36.9543 246.235 38.6703 246.235C40.3743 246.235 40.6023 247.819 40.6023 249.619Z" fill="#252525"/>
<path d="M28.72 204.555H29.788C29.896 203.715 30.508 203.139 31.528 203.139C32.572 203.139 33.124 203.715 33.124 204.543C33.124 205.551 32.344 205.995 30.892 206.007H30.604V206.919H30.88C32.44 206.919 33.292 207.387 33.292 208.611C33.292 209.499 32.74 210.183 31.576 210.183C30.424 210.183 29.752 209.475 29.644 208.551H28.588C28.72 210.231 29.944 211.107 31.588 211.107C33.4 211.107 34.336 210.051 34.336 208.707C34.336 207.459 33.652 206.715 32.644 206.475V206.415C33.556 206.211 34.18 205.431 34.18 204.435C34.18 203.187 33.256 202.203 31.564 202.203C29.956 202.203 28.828 203.067 28.72 204.555ZM35.8104 206.619C35.8104 209.139 36.4344 211.047 38.8344 211.047C41.2224 211.047 41.8464 209.139 41.8464 206.619C41.8464 204.135 41.2224 202.239 38.8344 202.239C36.4344 202.239 35.8104 204.135 35.8104 206.619ZM40.7664 206.619C40.7664 208.491 40.5384 210.051 38.8344 210.051C37.1184 210.051 36.8904 208.491 36.8904 206.619C36.8904 204.819 37.1184 203.235 38.8344 203.235C40.5384 203.235 40.7664 204.819 40.7664 206.619Z" fill="#252525"/>
<path d="M32.92 168.047H34V166.115H35.2V165.167H34V159.455H32.692L28.48 165.287V166.115H32.92V168.047ZM29.74 165.167L32.968 160.595V165.167H29.74ZM36.2909 163.619C36.2909 166.139 36.9149 168.047 39.3149 168.047C41.7029 168.047 42.3269 166.139 42.3269 163.619C42.3269 161.135 41.7029 159.239 39.3149 159.239C36.9149 159.239 36.2909 161.135 36.2909 163.619ZM41.2469 163.619C41.2469 165.491 41.0189 167.051 39.3149 167.051C37.5989 167.051 37.3709 165.491 37.3709 163.619C37.3709 161.819 37.5989 160.235 39.3149 160.235C41.0189 160.235 41.2469 161.819 41.2469 163.619Z" fill="#252525"/>
<path d="M29.056 116.359V121.255H30.088C30.376 120.571 31.012 120.115 31.888 120.115C33.148 120.115 33.784 120.835 33.784 122.071C33.784 123.259 33.196 124.147 31.876 124.147C30.856 124.147 30.148 123.607 29.944 122.695H28.876C29.092 124.099 30.136 125.071 31.864 125.071C33.892 125.071 34.828 123.727 34.828 122.047C34.828 120.703 34.156 119.179 32.044 119.179C31.192 119.179 30.424 119.563 30.064 120.055V117.319H34.276V116.359H29.056ZM36.2792 120.619C36.2792 123.139 36.9032 125.047 39.3032 125.047C41.6912 125.047 42.3152 123.139 42.3152 120.619C42.3152 118.135 41.6912 116.239 39.3032 116.239C36.9032 116.239 36.2792 118.135 36.2792 120.619ZM41.2352 120.619C41.2352 122.491 41.0072 124.051 39.3032 124.051C37.5872 124.051 37.3592 122.491 37.3592 120.619C37.3592 118.819 37.5872 117.235 39.3032 117.235C41.0072 117.235 41.2352 118.819 41.2352 120.619Z" fill="#252525"/>
<path d="M105.773 313.047H106.865V306.843L109.637 313.047H110.405L113.165 306.855V313.047H114.257V304.743H113.093L110.021 311.607L106.949 304.743H105.773V313.047ZM124.101 308.859C124.101 306.351 122.265 304.587 119.901 304.587C117.549 304.587 115.701 306.351 115.701 308.859C115.701 311.367 117.549 313.131 119.901 313.131C122.265 313.131 124.101 311.367 124.101 308.859ZM116.817 308.859C116.817 306.807 118.137 305.535 119.901 305.535C121.665 305.535 122.985 306.807 122.985 308.859C122.985 310.899 121.665 312.183 119.901 312.183C118.137 312.183 116.817 310.899 116.817 308.859ZM131.027 304.671V311.319L126.635 304.671H125.543V313.047H126.635V306.387L131.027 313.047H132.119V304.671H131.027Z" fill="#252525"/>
<path d="M159.257 305.571H161.549V313.047H162.641V305.571H164.921V304.683H159.257V305.571ZM166.241 309.963C166.241 312.135 167.657 313.131 169.385 313.131C171.113 313.131 172.541 312.135 172.541 309.963V304.683H171.449V309.975C171.449 311.511 170.633 312.171 169.397 312.171C168.161 312.171 167.333 311.511 167.333 309.975V304.683H166.241V309.963ZM178.863 304.671H174.363V313.047H178.863V312.147H175.455V309.267H178.503V308.367H175.455V305.571H178.863V304.671Z" fill="#252525"/>
<path d="M207.465 313.059L208.677 313.047L210.693 306.315L212.637 313.047H213.861L216.285 304.683H215.109L213.273 311.751L211.353 304.683H210.129L208.113 311.775L206.289 304.683H205.125L207.465 313.059ZM221.98 304.671H217.48V313.047H221.98V312.147H218.572V309.267H221.62V308.367H218.572V305.571H221.98V304.671ZM226.236 304.683H223.632V313.047H226.236C228.984 313.047 230.676 311.475 230.676 308.883C230.676 306.291 228.984 304.683 226.236 304.683ZM224.724 312.147V305.571H226.236C228.42 305.571 229.56 306.843 229.56 308.883C229.56 310.923 228.42 312.147 226.236 312.147H224.724Z" fill="#252525"/>
<path d="M257.257 305.571H259.549V313.047H260.641V305.571H262.921V304.683H257.257V305.571ZM269.617 313.047H270.709V304.683H269.617V308.355H265.357V304.683H264.265V313.047H265.357V309.255H269.617V313.047ZM272.538 309.963C272.538 312.135 273.954 313.131 275.682 313.131C277.41 313.131 278.838 312.135 278.838 309.963V304.683H277.746V309.975C277.746 311.511 276.93 312.171 275.694 312.171C274.458 312.171 273.63 311.511 273.63 309.975V304.683H272.538V309.963Z" fill="#252525"/>
<path d="M305.773 313.047H306.865V309.279H309.817V308.391H306.865V305.571H310.501V304.683H305.773V313.047ZM316.296 307.143C316.296 308.079 315.756 308.751 314.52 308.751H312.912V305.583H314.52C315.768 305.583 316.296 306.195 316.296 307.143ZM311.82 304.683V313.047H312.912V309.627H314.232L316.224 313.047H317.532L315.432 309.543C316.836 309.231 317.424 308.211 317.424 307.143C317.424 305.775 316.488 304.683 314.52 304.683H311.82ZM319.121 313.047H320.213V304.683H319.121V313.047Z" fill="#252525"/>
<path d="M353.209 310.767C353.209 307.671 348.697 309.015 348.697 306.855C348.697 305.955 349.405 305.487 350.305 305.511C351.325 305.523 351.853 306.159 351.925 306.723H353.125C352.993 305.451 351.949 304.575 350.353 304.575C348.697 304.575 347.581 305.511 347.581 306.891C347.581 309.999 352.105 308.559 352.105 310.815C352.105 311.607 351.481 312.207 350.425 312.207C349.261 312.207 348.769 311.511 348.697 310.815H347.533C347.557 312.195 348.745 313.131 350.425 313.131C352.237 313.131 353.209 311.955 353.209 310.767ZM360.432 313.047H361.584L358.572 304.731H357.312L354.288 313.047H355.44L356.112 311.187H359.76L360.432 313.047ZM359.448 310.299H356.424L357.936 306.075L359.448 310.299ZM362.386 305.571H364.678V313.047H365.77V305.571H368.05V304.683H362.386V305.571Z" fill="#252525"/>
<g filter="url(#filter0_d_284_105)">
<rect x="24" y="23.047" width="110" height="64" rx="10" fill="white" shape-rendering="crispEdges"/>
<path d="M52.9074 42.707C51.6541 42.0403 51.0274 40.9937 51.0274 39.567C51.0274 38.847 51.2141 38.1937 51.5874 37.607C51.9608 37.007 52.5274 36.5337 53.2874 36.187C54.0474 35.827 54.9808 35.647 56.0874 35.647C57.1941 35.647 58.1208 35.827 58.8674 36.187C59.6274 36.5337 60.1941 37.007 60.5674 37.607C60.9408 38.1937 61.1274 38.847 61.1274 39.567C61.1274 40.287 60.9541 40.9137 60.6074 41.447C60.2741 41.9803 59.8208 42.4003 59.2474 42.707C59.9674 43.0537 60.5208 43.5337 60.9074 44.147C61.2941 44.747 61.4874 45.4537 61.4874 46.267C61.4874 47.2137 61.2474 48.0337 60.7674 48.727C60.2874 49.407 59.6341 49.927 58.8074 50.287C57.9941 50.647 57.0874 50.827 56.0874 50.827C55.0874 50.827 54.1741 50.647 53.3474 50.287C52.5341 49.927 51.8874 49.407 51.4074 48.727C50.9274 48.0337 50.6874 47.2137 50.6874 46.267C50.6874 45.4403 50.8808 44.727 51.2674 44.127C51.6541 43.5137 52.2008 43.0403 52.9074 42.707ZM57.8074 40.087C57.8074 39.5403 57.6474 39.1203 57.3274 38.827C57.0208 38.5203 56.6074 38.367 56.0874 38.367C55.5674 38.367 55.1474 38.5203 54.8274 38.827C54.5208 39.1337 54.3674 39.5603 54.3674 40.107C54.3674 40.627 54.5274 41.0403 54.8474 41.347C55.1674 41.6403 55.5808 41.787 56.0874 41.787C56.5941 41.787 57.0074 41.6337 57.3274 41.327C57.6474 41.0203 57.8074 40.607 57.8074 40.087ZM56.0874 44.187C55.4608 44.187 54.9541 44.3603 54.5674 44.707C54.1808 45.0403 53.9874 45.507 53.9874 46.107C53.9874 46.667 54.1741 47.127 54.5474 47.487C54.9341 47.847 55.4474 48.027 56.0874 48.027C56.7274 48.027 57.2274 47.847 57.5874 47.487C57.9608 47.127 58.1474 46.667 58.1474 46.107C58.1474 45.5203 57.9541 45.0537 57.5674 44.707C57.1941 44.3603 56.7008 44.187 56.0874 44.187ZM63.4762 43.047C63.4762 40.7537 63.9162 38.947 64.7962 37.627C65.6895 36.307 67.1228 35.647 69.0962 35.647C71.0695 35.647 72.4962 36.307 73.3762 37.627C74.2695 38.947 74.7162 40.7537 74.7162 43.047C74.7162 45.367 74.2695 47.187 73.3762 48.507C72.4962 49.827 71.0695 50.487 69.0962 50.487C67.1228 50.487 65.6895 49.827 64.7962 48.507C63.9162 47.187 63.4762 45.367 63.4762 43.047ZM71.3562 43.047C71.3562 41.7003 71.2095 40.667 70.9162 39.947C70.6228 39.2137 70.0162 38.847 69.0962 38.847C68.1762 38.847 67.5695 39.2137 67.2762 39.947C66.9828 40.667 66.8362 41.7003 66.8362 43.047C66.8362 43.9537 66.8895 44.707 66.9962 45.307C67.1028 45.8937 67.3162 46.3737 67.6362 46.747C67.9695 47.107 68.4562 47.287 69.0962 47.287C69.7362 47.287 70.2162 47.107 70.5362 46.747C70.8695 46.3737 71.0895 45.8937 71.1962 45.307C71.3028 44.707 71.3562 43.9537 71.3562 43.047ZM91.1693 42.825L89.1563 50.547H86.8793L85.6473 45.465L84.3713 50.547H82.0943L80.1363 42.825H82.1493L83.2603 48.446L84.6353 42.825H86.7033L88.0233 48.446L89.1453 42.825H91.1693ZM97.9977 45.311C97.9977 45.7583 97.895 46.169 97.6897 46.543C97.4843 46.9097 97.169 47.2067 96.7437 47.434C96.3183 47.6613 95.7903 47.775 95.1597 47.775H93.9937V50.547H92.1127V42.825H95.1597C95.7757 42.825 96.2963 42.9313 96.7217 43.144C97.147 43.3567 97.466 43.65 97.6787 44.024C97.8913 44.398 97.9977 44.827 97.9977 45.311ZM95.0167 46.279C95.376 46.279 95.6437 46.1947 95.8197 46.026C95.9957 45.8573 96.0837 45.619 96.0837 45.311C96.0837 45.003 95.9957 44.7647 95.8197 44.596C95.6437 44.4273 95.376 44.343 95.0167 44.343H93.9937V46.279H95.0167ZM107.722 42.825V50.547H105.841V45.916L104.114 50.547H102.596L100.858 45.905V50.547H98.9769V42.825H101.199L103.366 48.171L105.511 42.825H107.722Z" fill="#7D56A5"/>
<path d="M43.5794 68.377H39.3234L38.5394 70.547H37.1954L40.7234 60.845H42.1934L45.7074 70.547H44.3634L43.5794 68.377ZM43.2154 67.341L41.4514 62.413L39.6874 67.341H43.2154ZM49.961 70.673C49.373 70.673 48.8457 70.575 48.379 70.379C47.9123 70.1737 47.5437 69.8937 47.273 69.539C47.0023 69.175 46.853 68.7597 46.825 68.293H48.141C48.1783 68.6757 48.3557 68.9883 48.673 69.231C48.9997 69.4737 49.4243 69.595 49.947 69.595C50.4323 69.595 50.815 69.4877 51.095 69.273C51.375 69.0583 51.515 68.7877 51.515 68.461C51.515 68.125 51.3657 67.8777 51.067 67.719C50.7683 67.551 50.3063 67.3877 49.681 67.229C49.1117 67.0797 48.645 66.9303 48.281 66.781C47.9263 66.6223 47.6183 66.3937 47.357 66.095C47.105 65.787 46.979 65.3857 46.979 64.891C46.979 64.499 47.0957 64.1397 47.329 63.813C47.5623 63.4863 47.8937 63.2297 48.323 63.043C48.7523 62.847 49.2423 62.749 49.793 62.749C50.6423 62.749 51.3283 62.9637 51.851 63.393C52.3737 63.8223 52.6537 64.4103 52.691 65.157H51.417C51.389 64.7557 51.2257 64.4337 50.927 64.191C50.6377 63.9483 50.2457 63.827 49.751 63.827C49.2937 63.827 48.9297 63.925 48.659 64.121C48.3883 64.317 48.253 64.5737 48.253 64.891C48.253 65.143 48.3323 65.353 48.491 65.521C48.659 65.6797 48.8643 65.8103 49.107 65.913C49.359 66.0063 49.7043 66.1137 50.143 66.235C50.6937 66.3843 51.1417 66.5337 51.487 66.683C51.8323 66.823 52.1263 67.0377 52.369 67.327C52.621 67.6163 52.7517 67.9943 52.761 68.461C52.761 68.881 52.6443 69.259 52.411 69.595C52.1777 69.931 51.8463 70.197 51.417 70.393C50.997 70.5797 50.5117 70.673 49.961 70.673ZM57.2754 70.673C56.6874 70.673 56.1601 70.575 55.6934 70.379C55.2268 70.1737 54.8581 69.8937 54.5874 69.539C54.3168 69.175 54.1674 68.7597 54.1394 68.293H55.4554C55.4928 68.6757 55.6701 68.9883 55.9874 69.231C56.3141 69.4737 56.7388 69.595 57.2614 69.595C57.7468 69.595 58.1294 69.4877 58.4094 69.273C58.6894 69.0583 58.8294 68.7877 58.8294 68.461C58.8294 68.125 58.6801 67.8777 58.3814 67.719C58.0828 67.551 57.6208 67.3877 56.9954 67.229C56.4261 67.0797 55.9594 66.9303 55.5954 66.781C55.2408 66.6223 54.9328 66.3937 54.6714 66.095C54.4194 65.787 54.2934 65.3857 54.2934 64.891C54.2934 64.499 54.4101 64.1397 54.6434 63.813C54.8768 63.4863 55.2081 63.2297 55.6374 63.043C56.0668 62.847 56.5568 62.749 57.1074 62.749C57.9568 62.749 58.6428 62.9637 59.1654 63.393C59.6881 63.8223 59.9681 64.4103 60.0054 65.157H58.7314C58.7034 64.7557 58.5401 64.4337 58.2414 64.191C57.9521 63.9483 57.5601 63.827 57.0654 63.827C56.6081 63.827 56.2441 63.925 55.9734 64.121C55.7028 64.317 55.5674 64.5737 55.5674 64.891C55.5674 65.143 55.6468 65.353 55.8054 65.521C55.9734 65.6797 56.1788 65.8103 56.4214 65.913C56.6734 66.0063 57.0188 66.1137 57.4574 66.235C58.0081 66.3843 58.4561 66.5337 58.8014 66.683C59.1468 66.823 59.4408 67.0377 59.6834 67.327C59.9354 67.6163 60.0661 67.9943 60.0754 68.461C60.0754 68.881 59.9588 69.259 59.7254 69.595C59.4921 69.931 59.1608 70.197 58.7314 70.393C58.3114 70.5797 57.8261 70.673 57.2754 70.673ZM68.8739 66.417C68.8739 66.6597 68.8599 66.9163 68.8319 67.187H62.6999C62.7466 67.943 63.0032 68.5357 63.4699 68.965C63.9459 69.385 64.5199 69.595 65.1919 69.595C65.7426 69.595 66.1999 69.469 66.5639 69.217C66.9372 68.9557 67.1986 68.6103 67.3479 68.181H68.7199C68.5146 68.9183 68.1039 69.5203 67.4879 69.987C66.8719 70.4443 66.1066 70.673 65.1919 70.673C64.4639 70.673 63.8106 70.5097 63.2319 70.183C62.6626 69.8563 62.2146 69.3943 61.8879 68.797C61.5612 68.1903 61.3979 67.4903 61.3979 66.697C61.3979 65.9037 61.5566 65.2083 61.8739 64.611C62.1912 64.0137 62.6346 63.5563 63.2039 63.239C63.7826 62.9123 64.4452 62.749 65.1919 62.749C65.9199 62.749 66.5639 62.9077 67.1239 63.225C67.6839 63.5423 68.1132 63.981 68.4119 64.541C68.7199 65.0917 68.8739 65.717 68.8739 66.417ZM67.5579 66.151C67.5579 65.6657 67.4506 65.2503 67.2359 64.905C67.0212 64.5503 66.7272 64.2843 66.3539 64.107C65.9899 63.9203 65.5839 63.827 65.1359 63.827C64.4919 63.827 63.9412 64.0323 63.4839 64.443C63.0359 64.8537 62.7792 65.423 62.7139 66.151H67.5579ZM73.2715 70.673C72.6835 70.673 72.1562 70.575 71.6895 70.379C71.2229 70.1737 70.8542 69.8937 70.5835 69.539C70.3129 69.175 70.1635 68.7597 70.1355 68.293H71.4515C71.4889 68.6757 71.6662 68.9883 71.9835 69.231C72.3102 69.4737 72.7349 69.595 73.2575 69.595C73.7429 69.595 74.1255 69.4877 74.4055 69.273C74.6855 69.0583 74.8255 68.7877 74.8255 68.461C74.8255 68.125 74.6762 67.8777 74.3775 67.719C74.0789 67.551 73.6169 67.3877 72.9915 67.229C72.4222 67.0797 71.9555 66.9303 71.5915 66.781C71.2369 66.6223 70.9289 66.3937 70.6675 66.095C70.4155 65.787 70.2895 65.3857 70.2895 64.891C70.2895 64.499 70.4062 64.1397 70.6395 63.813C70.8729 63.4863 71.2042 63.2297 71.6335 63.043C72.0629 62.847 72.5529 62.749 73.1035 62.749C73.9529 62.749 74.6389 62.9637 75.1615 63.393C75.6842 63.8223 75.9642 64.4103 76.0015 65.157H74.7275C74.6995 64.7557 74.5362 64.4337 74.2375 64.191C73.9482 63.9483 73.5562 63.827 73.0615 63.827C72.6042 63.827 72.2402 63.925 71.9695 64.121C71.6989 64.317 71.5635 64.5737 71.5635 64.891C71.5635 65.143 71.6429 65.353 71.8015 65.521C71.9695 65.6797 72.1749 65.8103 72.4175 65.913C72.6695 66.0063 73.0149 66.1137 73.4535 66.235C74.0042 66.3843 74.4522 66.5337 74.7975 66.683C75.1429 66.823 75.4369 67.0377 75.6795 67.327C75.9315 67.6163 76.0622 67.9943 76.0715 68.461C76.0715 68.881 75.9549 69.259 75.7215 69.595C75.4882 69.931 75.1569 70.197 74.7275 70.393C74.3075 70.5797 73.8222 70.673 73.2715 70.673ZM80.586 70.673C79.998 70.673 79.4707 70.575 79.004 70.379C78.5373 70.1737 78.1687 69.8937 77.898 69.539C77.6273 69.175 77.478 68.7597 77.45 68.293H78.766C78.8033 68.6757 78.9807 68.9883 79.298 69.231C79.6247 69.4737 80.0493 69.595 80.572 69.595C81.0573 69.595 81.44 69.4877 81.72 69.273C82 69.0583 82.14 68.7877 82.14 68.461C82.14 68.125 81.9907 67.8777 81.692 67.719C81.3933 67.551 80.9313 67.3877 80.306 67.229C79.7367 67.0797 79.27 66.9303 78.906 66.781C78.5513 66.6223 78.2433 66.3937 77.982 66.095C77.73 65.787 77.604 65.3857 77.604 64.891C77.604 64.499 77.7207 64.1397 77.954 63.813C78.1873 63.4863 78.5187 63.2297 78.948 63.043C79.3773 62.847 79.8673 62.749 80.418 62.749C81.2673 62.749 81.9533 62.9637 82.476 63.393C82.9987 63.8223 83.2787 64.4103 83.316 65.157H82.042C82.014 64.7557 81.8507 64.4337 81.552 64.191C81.2627 63.9483 80.8707 63.827 80.376 63.827C79.9187 63.827 79.5547 63.925 79.284 64.121C79.0133 64.317 78.878 64.5737 78.878 64.891C78.878 65.143 78.9573 65.353 79.116 65.521C79.284 65.6797 79.4893 65.8103 79.732 65.913C79.984 66.0063 80.3293 66.1137 80.768 66.235C81.3187 66.3843 81.7667 66.5337 82.112 66.683C82.4573 66.823 82.7513 67.0377 82.994 67.327C83.246 67.6163 83.3767 67.9943 83.386 68.461C83.386 68.881 83.2693 69.259 83.036 69.595C82.8027 69.931 82.4713 70.197 82.042 70.393C81.622 70.5797 81.1367 70.673 80.586 70.673ZM94.4104 62.735C95.0078 62.735 95.5398 62.861 96.0064 63.113C96.4731 63.3557 96.8418 63.7243 97.1124 64.219C97.3831 64.7137 97.5184 65.3157 97.5184 66.025V70.547H96.2584V66.207C96.2584 65.4417 96.0671 64.8583 95.6844 64.457C95.3111 64.0463 94.8024 63.841 94.1584 63.841C93.4958 63.841 92.9684 64.0557 92.5764 64.485C92.1844 64.905 91.9884 65.5163 91.9884 66.319V70.547H90.7284V66.207C90.7284 65.4417 90.5371 64.8583 90.1544 64.457C89.7811 64.0463 89.2724 63.841 88.6284 63.841C87.9658 63.841 87.4384 64.0557 87.0464 64.485C86.6544 64.905 86.4584 65.5163 86.4584 66.319V70.547H85.1844V62.875H86.4584V63.981C86.7104 63.5797 87.0464 63.2717 87.4664 63.057C87.8958 62.8423 88.3671 62.735 88.8804 62.735C89.5244 62.735 90.0938 62.8797 90.5884 63.169C91.0831 63.4583 91.4518 63.883 91.6944 64.443C91.9091 63.9017 92.2638 63.4817 92.7584 63.183C93.2531 62.8843 93.8038 62.735 94.4104 62.735ZM106.608 66.417C106.608 66.6597 106.594 66.9163 106.566 67.187H100.434C100.481 67.943 100.738 68.5357 101.204 68.965C101.68 69.385 102.254 69.595 102.926 69.595C103.477 69.595 103.934 69.469 104.298 69.217C104.672 68.9557 104.933 68.6103 105.082 68.181H106.454C106.249 68.9183 105.838 69.5203 105.222 69.987C104.606 70.4443 103.841 70.673 102.926 70.673C102.198 70.673 101.545 70.5097 100.966 70.183C100.397 69.8563 99.9489 69.3943 99.6223 68.797C99.2956 68.1903 99.1323 67.4903 99.1323 66.697C99.1323 65.9037 99.2909 65.2083 99.6083 64.611C99.9256 64.0137 100.369 63.5563 100.938 63.239C101.517 62.9123 102.18 62.749 102.926 62.749C103.654 62.749 104.298 62.9077 104.858 63.225C105.418 63.5423 105.848 63.981 106.146 64.541C106.454 65.0917 106.608 65.717 106.608 66.417ZM105.292 66.151C105.292 65.6657 105.185 65.2503 104.97 64.905C104.756 64.5503 104.462 64.2843 104.088 64.107C103.724 63.9203 103.318 63.827 102.87 63.827C102.226 63.827 101.676 64.0323 101.218 64.443C100.77 64.8537 100.514 65.423 100.448 66.151H105.292ZM112.028 62.735C112.961 62.735 113.717 63.0197 114.296 63.589C114.875 64.149 115.164 64.961 115.164 66.025V70.547H113.904V66.207C113.904 65.4417 113.713 64.8583 113.33 64.457C112.947 64.0463 112.425 63.841 111.762 63.841C111.09 63.841 110.553 64.051 110.152 64.471C109.76 64.891 109.564 65.5023 109.564 66.305V70.547H108.29V62.875H109.564V63.967C109.816 63.575 110.157 63.2717 110.586 63.057C111.025 62.8423 111.505 62.735 112.028 62.735ZM118.799 63.925V68.447C118.799 68.8203 118.878 69.0863 119.037 69.245C119.196 69.3943 119.471 69.469 119.863 69.469H120.801V70.547H119.653C118.944 70.547 118.412 70.3837 118.057 70.057C117.702 69.7303 117.525 69.1937 117.525 68.447V63.925H116.531V62.875H117.525V60.943H118.799V62.875H120.801V63.925H118.799Z" fill="#252525"/>
<rect x="24.75" y="23.797" width="108.5" height="62.5" rx="9.25" stroke="#252525" stroke-width="1.5" shape-rendering="crispEdges"/>
</g>
<g filter="url(#filter1_d_284_105)">
<rect x="144" y="23.047" width="110" height="64" rx="10" fill="white" shape-rendering="crispEdges"/>
<path d="M182.594 42.707C181.341 42.0403 180.714 40.9937 180.714 39.567C180.714 38.847 180.901 38.1937 181.274 37.607C181.648 37.007 182.214 36.5337 182.974 36.187C183.734 35.827 184.668 35.647 185.774 35.647C186.881 35.647 187.808 35.827 188.554 36.187C189.314 36.5337 189.881 37.007 190.254 37.607C190.628 38.1937 190.814 38.847 190.814 39.567C190.814 40.287 190.641 40.9137 190.294 41.447C189.961 41.9803 189.508 42.4003 188.934 42.707C189.654 43.0537 190.208 43.5337 190.594 44.147C190.981 44.747 191.174 45.4537 191.174 46.267C191.174 47.2137 190.934 48.0337 190.454 48.727C189.974 49.407 189.321 49.927 188.494 50.287C187.681 50.647 186.774 50.827 185.774 50.827C184.774 50.827 183.861 50.647 183.034 50.287C182.221 49.927 181.574 49.407 181.094 48.727C180.614 48.0337 180.374 47.2137 180.374 46.267C180.374 45.4403 180.568 44.727 180.954 44.127C181.341 43.5137 181.888 43.0403 182.594 42.707ZM187.494 40.087C187.494 39.5403 187.334 39.1203 187.014 38.827C186.708 38.5203 186.294 38.367 185.774 38.367C185.254 38.367 184.834 38.5203 184.514 38.827C184.208 39.1337 184.054 39.5603 184.054 40.107C184.054 40.627 184.214 41.0403 184.534 41.347C184.854 41.6403 185.268 41.787 185.774 41.787C186.281 41.787 186.694 41.6337 187.014 41.327C187.334 41.0203 187.494 40.607 187.494 40.087ZM185.774 44.187C185.148 44.187 184.641 44.3603 184.254 44.707C183.868 45.0403 183.674 45.507 183.674 46.107C183.674 46.667 183.861 47.127 184.234 47.487C184.621 47.847 185.134 48.027 185.774 48.027C186.414 48.027 186.914 47.847 187.274 47.487C187.648 47.127 187.834 46.667 187.834 46.107C187.834 45.5203 187.641 45.0537 187.254 44.707C186.881 44.3603 186.388 44.187 185.774 44.187ZM199.064 49.095H201.528V50.547H197.183V42.825H199.064V49.095ZM208.311 45.311C208.311 45.7583 208.208 46.169 208.003 46.543C207.797 46.9097 207.482 47.2067 207.057 47.434C206.631 47.6613 206.103 47.775 205.473 47.775H204.307V50.547H202.426V42.825H205.473C206.089 42.825 206.609 42.9313 207.035 43.144C207.46 43.3567 207.779 43.65 207.992 44.024C208.204 44.398 208.311 44.827 208.311 45.311ZM205.33 46.279C205.689 46.279 205.957 46.1947 206.133 46.026C206.309 45.8573 206.397 45.619 206.397 45.311C206.397 45.003 206.309 44.7647 206.133 44.596C205.957 44.4273 205.689 44.343 205.33 44.343H204.307V46.279H205.33ZM218.035 42.825V50.547H216.154V45.916L214.427 50.547H212.909L211.171 45.905V50.547H209.29V42.825H211.512L213.679 48.171L215.824 42.825H218.035Z" fill="#7D56A5"/>
<path d="M176.225 70.547L173.901 66.557H172.361V70.547H171.087V60.789H174.237C174.974 60.789 175.595 60.915 176.099 61.167C176.612 61.419 176.995 61.7597 177.247 62.189C177.499 62.6183 177.625 63.1083 177.625 63.659C177.625 64.331 177.429 64.9237 177.037 65.437C176.654 65.9503 176.075 66.291 175.301 66.459L177.751 70.547H176.225ZM172.361 65.535H174.237C174.927 65.535 175.445 65.367 175.791 65.031C176.136 64.6857 176.309 64.2283 176.309 63.659C176.309 63.0803 176.136 62.6323 175.791 62.315C175.455 61.9977 174.937 61.839 174.237 61.839H172.361V65.535ZM186.604 66.417C186.604 66.6597 186.59 66.9163 186.562 67.187H180.43C180.477 67.943 180.734 68.5357 181.2 68.965C181.676 69.385 182.25 69.595 182.922 69.595C183.473 69.595 183.93 69.469 184.294 69.217C184.668 68.9557 184.929 68.6103 185.078 68.181H186.45C186.245 68.9183 185.834 69.5203 185.218 69.987C184.602 70.4443 183.837 70.673 182.922 70.673C182.194 70.673 181.541 70.5097 180.962 70.183C180.393 69.8563 179.945 69.3943 179.618 68.797C179.292 68.1903 179.128 67.4903 179.128 66.697C179.128 65.9037 179.287 65.2083 179.604 64.611C179.922 64.0137 180.365 63.5563 180.934 63.239C181.513 62.9123 182.176 62.749 182.922 62.749C183.65 62.749 184.294 62.9077 184.854 63.225C185.414 63.5423 185.844 63.981 186.142 64.541C186.45 65.0917 186.604 65.717 186.604 66.417ZM185.288 66.151C185.288 65.6657 185.181 65.2503 184.966 64.905C184.752 64.5503 184.458 64.2843 184.084 64.107C183.72 63.9203 183.314 63.827 182.866 63.827C182.222 63.827 181.672 64.0323 181.214 64.443C180.766 64.8537 180.51 65.423 180.444 66.151H185.288ZM187.81 66.683C187.81 65.899 187.969 65.213 188.286 64.625C188.603 64.0277 189.037 63.5657 189.588 63.239C190.148 62.9123 190.769 62.749 191.45 62.749C192.122 62.749 192.705 62.8937 193.2 63.183C193.695 63.4723 194.063 63.8363 194.306 64.275V62.875H195.594V70.547H194.306V69.119C194.054 69.567 193.676 69.9403 193.172 70.239C192.677 70.5283 192.099 70.673 191.436 70.673C190.755 70.673 190.139 70.505 189.588 70.169C189.037 69.833 188.603 69.3617 188.286 68.755C187.969 68.1483 187.81 67.4577 187.81 66.683ZM194.306 66.697C194.306 66.1183 194.189 65.6143 193.956 65.185C193.723 64.7557 193.405 64.429 193.004 64.205C192.612 63.9717 192.178 63.855 191.702 63.855C191.226 63.855 190.792 63.967 190.4 64.191C190.008 64.415 189.695 64.7417 189.462 65.171C189.229 65.6003 189.112 66.1043 189.112 66.683C189.112 67.271 189.229 67.7843 189.462 68.223C189.695 68.6523 190.008 68.9837 190.4 69.217C190.792 69.441 191.226 69.553 191.702 69.553C192.178 69.553 192.612 69.441 193.004 69.217C193.405 68.9837 193.723 68.6523 193.956 68.223C194.189 67.7843 194.306 67.2757 194.306 66.697ZM197.271 66.683C197.271 65.899 197.43 65.213 197.747 64.625C198.064 64.0277 198.498 63.5657 199.049 63.239C199.609 62.9123 200.234 62.749 200.925 62.749C201.522 62.749 202.078 62.889 202.591 63.169C203.104 63.4397 203.496 63.799 203.767 64.247V60.187H205.055V70.547H203.767V69.105C203.515 69.5623 203.142 69.9403 202.647 70.239C202.152 70.5283 201.574 70.673 200.911 70.673C200.23 70.673 199.609 70.505 199.049 70.169C198.498 69.833 198.064 69.3617 197.747 68.755C197.43 68.1483 197.271 67.4577 197.271 66.683ZM203.767 66.697C203.767 66.1183 203.65 65.6143 203.417 65.185C203.184 64.7557 202.866 64.429 202.465 64.205C202.073 63.9717 201.639 63.855 201.163 63.855C200.687 63.855 200.253 63.967 199.861 64.191C199.469 64.415 199.156 64.7417 198.923 65.171C198.69 65.6003 198.573 66.1043 198.573 66.683C198.573 67.271 198.69 67.7843 198.923 68.223C199.156 68.6523 199.469 68.9837 199.861 69.217C200.253 69.441 200.687 69.553 201.163 69.553C201.639 69.553 202.073 69.441 202.465 69.217C202.866 68.9837 203.184 68.6523 203.417 68.223C203.65 67.7843 203.767 67.2757 203.767 66.697ZM207.866 61.629C207.623 61.629 207.418 61.545 207.25 61.377C207.082 61.209 206.998 61.0037 206.998 60.761C206.998 60.5183 207.082 60.313 207.25 60.145C207.418 59.977 207.623 59.893 207.866 59.893C208.099 59.893 208.295 59.977 208.454 60.145C208.622 60.313 208.706 60.5183 208.706 60.761C208.706 61.0037 208.622 61.209 208.454 61.377C208.295 61.545 208.099 61.629 207.866 61.629ZM208.482 62.875V70.547H207.208V62.875H208.482ZM214.391 62.735C215.325 62.735 216.081 63.0197 216.659 63.589C217.238 64.149 217.527 64.961 217.527 66.025V70.547H216.267V66.207C216.267 65.4417 216.076 64.8583 215.693 64.457C215.311 64.0463 214.788 63.841 214.125 63.841C213.453 63.841 212.917 64.051 212.515 64.471C212.123 64.891 211.927 65.5023 211.927 66.305V70.547H210.653V62.875H211.927V63.967C212.179 63.575 212.52 63.2717 212.949 63.057C213.388 62.8423 213.869 62.735 214.391 62.735ZM222.772 62.749C223.435 62.749 224.014 62.8937 224.508 63.183C225.012 63.4723 225.386 63.8363 225.628 64.275V62.875H226.916V70.715C226.916 71.415 226.767 72.0357 226.468 72.577C226.17 73.1277 225.74 73.557 225.18 73.865C224.63 74.173 223.986 74.327 223.248 74.327C222.24 74.327 221.4 74.089 220.728 73.613C220.056 73.137 219.66 72.4883 219.538 71.667H220.798C220.938 72.1337 221.228 72.507 221.666 72.787C222.105 73.0763 222.632 73.221 223.248 73.221C223.948 73.221 224.518 73.0017 224.956 72.563C225.404 72.1243 225.628 71.5083 225.628 70.715V69.105C225.376 69.553 225.003 69.9263 224.508 70.225C224.014 70.5237 223.435 70.673 222.772 70.673C222.091 70.673 221.47 70.505 220.91 70.169C220.36 69.833 219.926 69.3617 219.608 68.755C219.291 68.1483 219.132 67.4577 219.132 66.683C219.132 65.899 219.291 65.213 219.608 64.625C219.926 64.0277 220.36 63.5657 220.91 63.239C221.47 62.9123 222.091 62.749 222.772 62.749ZM225.628 66.697C225.628 66.1183 225.512 65.6143 225.278 65.185C225.045 64.7557 224.728 64.429 224.326 64.205C223.934 63.9717 223.5 63.855 223.024 63.855C222.548 63.855 222.114 63.967 221.722 64.191C221.33 64.415 221.018 64.7417 220.784 65.171C220.551 65.6003 220.434 66.1043 220.434 66.683C220.434 67.271 220.551 67.7843 220.784 68.223C221.018 68.6523 221.33 68.9837 221.722 69.217C222.114 69.441 222.548 69.553 223.024 69.553C223.5 69.553 223.934 69.441 224.326 69.217C224.728 68.9837 225.045 68.6523 225.278 68.223C225.512 67.7843 225.628 67.2757 225.628 66.697Z" fill="#252525"/>
<rect x="144.75" y="23.797" width="108.5" height="62.5" rx="9.25" stroke="#252525" stroke-width="1.5" shape-rendering="crispEdges"/>
</g>
<g filter="url(#filter2_d_284_105)">
<rect x="264" y="23.047" width="110" height="64" rx="10" fill="#F39C12" shape-rendering="crispEdges"/>
<path d="M305.795 38.927H299.555V41.687C299.822 41.3937 300.195 41.1537 300.675 40.967C301.155 40.7803 301.675 40.687 302.235 40.687C303.235 40.687 304.062 40.9137 304.715 41.367C305.382 41.8203 305.869 42.407 306.175 43.127C306.482 43.847 306.635 44.627 306.635 45.467C306.635 47.027 306.195 48.267 305.315 49.187C304.435 50.0937 303.195 50.547 301.595 50.547C300.529 50.547 299.602 50.367 298.815 50.007C298.029 49.6337 297.422 49.1203 296.995 48.467C296.569 47.8137 296.335 47.0603 296.295 46.207H299.635C299.715 46.6203 299.909 46.967 300.215 47.247C300.522 47.5137 300.942 47.647 301.475 47.647C302.102 47.647 302.569 47.447 302.875 47.047C303.182 46.647 303.335 46.1137 303.335 45.447C303.335 44.7937 303.175 44.2937 302.855 43.947C302.535 43.6003 302.069 43.427 301.455 43.427C301.002 43.427 300.629 43.5403 300.335 43.767C300.042 43.9803 299.849 44.267 299.755 44.627H296.455V35.927H305.795V38.927ZM308.523 43.047C308.523 40.7537 308.963 38.947 309.843 37.627C310.736 36.307 312.17 35.647 314.143 35.647C316.116 35.647 317.543 36.307 318.423 37.627C319.316 38.947 319.763 40.7537 319.763 43.047C319.763 45.367 319.316 47.187 318.423 48.507C317.543 49.827 316.116 50.487 314.143 50.487C312.17 50.487 310.736 49.827 309.843 48.507C308.963 47.187 308.523 45.367 308.523 43.047ZM316.403 43.047C316.403 41.7003 316.256 40.667 315.963 39.947C315.67 39.2137 315.063 38.847 314.143 38.847C313.223 38.847 312.616 39.2137 312.323 39.947C312.03 40.667 311.883 41.7003 311.883 43.047C311.883 43.9537 311.936 44.707 312.043 45.307C312.15 45.8937 312.363 46.3737 312.683 46.747C313.016 47.107 313.503 47.287 314.143 47.287C314.783 47.287 315.263 47.107 315.583 46.747C315.916 46.3737 316.136 45.8937 316.243 45.307C316.35 44.707 316.403 43.9537 316.403 43.047ZM325.271 46.675C325.271 45.9123 325.436 45.234 325.766 44.64C326.096 44.0387 326.555 43.573 327.141 43.243C327.735 42.9057 328.406 42.737 329.154 42.737C330.071 42.737 330.856 42.979 331.508 43.463C332.161 43.947 332.597 44.607 332.817 45.443H330.749C330.595 45.1203 330.375 44.8747 330.089 44.706C329.811 44.5373 329.492 44.453 329.132 44.453C328.553 44.453 328.084 44.6547 327.724 45.058C327.365 45.4613 327.185 46.0003 327.185 46.675C327.185 47.3497 327.365 47.8887 327.724 48.292C328.084 48.6953 328.553 48.897 329.132 48.897C329.492 48.897 329.811 48.8127 330.089 48.644C330.375 48.4753 330.595 48.2297 330.749 47.907H332.817C332.597 48.743 332.161 49.403 331.508 49.887C330.856 50.3637 330.071 50.602 329.154 50.602C328.406 50.602 327.735 50.437 327.141 50.107C326.555 49.7697 326.096 49.304 325.766 48.71C325.436 48.116 325.271 47.4377 325.271 46.675ZM342.714 42.825V50.547H340.833V45.916L339.106 50.547H337.588L335.85 45.905V50.547H333.969V42.825H336.191L338.358 48.171L340.503 42.825H342.714ZM305.202 60.789V61.825H300.96V65.115H304.404V66.151H300.96V70.547H299.686V60.789H305.202ZM310.087 70.673C309.368 70.673 308.715 70.5097 308.127 70.183C307.548 69.8563 307.091 69.3943 306.755 68.797C306.428 68.1903 306.265 67.4903 306.265 66.697C306.265 65.913 306.433 65.2223 306.769 64.625C307.114 64.0183 307.581 63.5563 308.169 63.239C308.757 62.9123 309.415 62.749 310.143 62.749C310.871 62.749 311.529 62.9123 312.117 63.239C312.705 63.5563 313.167 64.0137 313.503 64.611C313.848 65.2083 314.021 65.9037 314.021 66.697C314.021 67.4903 313.844 68.1903 313.489 68.797C313.144 69.3943 312.672 69.8563 312.075 70.183C311.478 70.5097 310.815 70.673 310.087 70.673ZM310.087 69.553C310.544 69.553 310.974 69.4457 311.375 69.231C311.776 69.0163 312.098 68.6943 312.341 68.265C312.593 67.8357 312.719 67.313 312.719 66.697C312.719 66.081 312.598 65.5583 312.355 65.129C312.112 64.6997 311.795 64.3823 311.403 64.177C311.011 63.9623 310.586 63.855 310.129 63.855C309.662 63.855 309.233 63.9623 308.841 64.177C308.458 64.3823 308.15 64.6997 307.917 65.129C307.684 65.5583 307.567 66.081 307.567 66.697C307.567 67.3223 307.679 67.8497 307.903 68.279C308.136 68.7083 308.444 69.0303 308.827 69.245C309.21 69.4503 309.63 69.553 310.087 69.553ZM315.22 66.697C315.22 65.9037 315.379 65.213 315.696 64.625C316.013 64.0277 316.452 63.5657 317.012 63.239C317.581 62.9123 318.23 62.749 318.958 62.749C319.901 62.749 320.675 62.9777 321.282 63.435C321.898 63.8923 322.304 64.527 322.5 65.339H321.128C320.997 64.8723 320.741 64.5037 320.358 64.233C319.985 63.9623 319.518 63.827 318.958 63.827C318.23 63.827 317.642 64.079 317.194 64.583C316.746 65.0777 316.522 65.7823 316.522 66.697C316.522 67.621 316.746 68.335 317.194 68.839C317.642 69.343 318.23 69.595 318.958 69.595C319.518 69.595 319.985 69.4643 320.358 69.203C320.731 68.9417 320.988 68.5683 321.128 68.083H322.5C322.295 68.867 321.884 69.497 321.268 69.973C320.652 70.4397 319.882 70.673 318.958 70.673C318.23 70.673 317.581 70.5097 317.012 70.183C316.452 69.8563 316.013 69.3943 315.696 68.797C315.379 68.1997 315.22 67.4997 315.22 66.697ZM331.004 62.875V70.547H329.73V69.413C329.487 69.805 329.147 70.113 328.708 70.337C328.279 70.5517 327.803 70.659 327.28 70.659C326.683 70.659 326.146 70.5377 325.67 70.295C325.194 70.043 324.816 69.6697 324.536 69.175C324.265 68.6803 324.13 68.0783 324.13 67.369V62.875H325.39V67.201C325.39 67.957 325.581 68.5403 325.964 68.951C326.347 69.3523 326.869 69.553 327.532 69.553C328.213 69.553 328.75 69.343 329.142 68.923C329.534 68.503 329.73 67.8917 329.73 67.089V62.875H331.004ZM335.871 70.673C335.283 70.673 334.756 70.575 334.289 70.379C333.822 70.1737 333.454 69.8937 333.183 69.539C332.912 69.175 332.763 68.7597 332.735 68.293H334.051C334.088 68.6757 334.266 68.9883 334.583 69.231C334.91 69.4737 335.334 69.595 335.857 69.595C336.342 69.595 336.725 69.4877 337.005 69.273C337.285 69.0583 337.425 68.7877 337.425 68.461C337.425 68.125 337.276 67.8777 336.977 67.719C336.678 67.551 336.216 67.3877 335.591 67.229C335.022 67.0797 334.555 66.9303 334.191 66.781C333.836 66.6223 333.528 66.3937 333.267 66.095C333.015 65.787 332.889 65.3857 332.889 64.891C332.889 64.499 333.006 64.1397 333.239 63.813C333.472 63.4863 333.804 63.2297 334.233 63.043C334.662 62.847 335.152 62.749 335.703 62.749C336.552 62.749 337.238 62.9637 337.761 63.393C338.284 63.8223 338.564 64.4103 338.601 65.157H337.327C337.299 64.7557 337.136 64.4337 336.837 64.191C336.548 63.9483 336.156 63.827 335.661 63.827C335.204 63.827 334.84 63.925 334.569 64.121C334.298 64.317 334.163 64.5737 334.163 64.891C334.163 65.143 334.242 65.353 334.401 65.521C334.569 65.6797 334.774 65.8103 335.017 65.913C335.269 66.0063 335.614 66.1137 336.053 66.235C336.604 66.3843 337.052 66.5337 337.397 66.683C337.742 66.823 338.036 67.0377 338.279 67.327C338.531 67.6163 338.662 67.9943 338.671 68.461C338.671 68.881 338.554 69.259 338.321 69.595C338.088 69.931 337.756 70.197 337.327 70.393C336.907 70.5797 336.422 70.673 335.871 70.673Z" fill="white"/>
<rect x="264.75" y="23.797" width="108.5" height="62.5" rx="9.25" stroke="#252525" stroke-width="1.5" shape-rendering="crispEdges"/>
</g>
<g filter="url(#filter3_d_284_105)">
<rect x="280" y="106.047" width="92" height="30" rx="4" fill="white" shape-rendering="crispEdges"/>
<path d="M288.924 116.683V125.047H292.944V124.159H290.016V116.683H288.924ZM299.72 125.047H300.872L297.86 116.731H296.6L293.576 125.047H294.728L295.4 123.187H299.048L299.72 125.047ZM298.736 122.299H295.712L297.224 118.075L298.736 122.299ZM307.626 122.767C307.626 119.671 303.114 121.015 303.114 118.855C303.114 117.955 303.822 117.487 304.722 117.511C305.742 117.523 306.27 118.159 306.342 118.723H307.542C307.41 117.451 306.366 116.575 304.77 116.575C303.114 116.575 301.998 117.511 301.998 118.891C301.998 121.999 306.522 120.559 306.522 122.815C306.522 123.607 305.898 124.207 304.842 124.207C303.678 124.207 303.186 123.511 303.114 122.815H301.95C301.974 124.195 303.162 125.131 304.842 125.131C306.654 125.131 307.626 123.955 307.626 122.767ZM308.717 117.571H311.009V125.047H312.101V117.571H314.381V116.683H308.717V117.571ZM320.616 125.059L321.828 125.047L323.844 118.315L325.788 125.047H327.012L329.436 116.683H328.26L326.424 123.751L324.504 116.683H323.28L321.264 123.775L319.44 116.683H318.276L320.616 125.059ZM335.131 116.671H330.631V125.047H335.131V124.147H331.723V121.267H334.771V120.367H331.723V117.571H335.131V116.671ZM341.283 116.671H336.783V125.047H341.283V124.147H337.875V121.267H340.923V120.367H337.875V117.571H341.283V116.671ZM347.472 125.047H348.9L345.072 120.871L348.864 116.683H347.484L344.028 120.559V116.683H342.936V125.047H344.028V121.231L347.472 125.047Z" fill="#252525"/>
<path d="M356 119.047L360 123.047L364 119.047" stroke="#252525" stroke-linecap="round" stroke-linejoin="round"/>
<rect x="280.5" y="106.547" width="91" height="29" rx="3.5" stroke="#252525" shape-rendering="crispEdges"/>
</g>
<defs>
<filter id="filter0_d_284_105" x="24" y="23.047" width="112" height="66" filterUnits="userSpaceOnUse" color-interpolation-filters="sRGB">
<feFlood flood-opacity="0" result="BackgroundImageFix"/>
<feColorMatrix in="SourceAlpha" type="matrix" values="0 0 0 0 0 0 0 0 0 0 0 0 0 0 0 0 0 0 127 0" result="hardAlpha"/>
<feOffset dx="2" dy="2"/>
<feComposite in2="hardAlpha" operator="out"/>
<feColorMatrix type="matrix" values="0 0 0 0 0.827451 0 0 0 0 0.329412 0 0 0 0 0 0 0 0 1 0"/>
<feBlend mode="normal" in2="BackgroundImageFix" result="effect1_dropShadow_284_105"/>
<feBlend mode="normal" in="SourceGraphic" in2="effect1_dropShadow_284_105" result="shape"/>
</filter>
<filter id="filter1_d_284_105" x="144" y="23.047" width="112" height="66" filterUnits="userSpaceOnUse" color-interpolation-filters="sRGB">
<feFlood flood-opacity="0" result="BackgroundImageFix"/>
<feColorMatrix in="SourceAlpha" type="matrix" values="0 0 0 0 0 0 0 0 0 0 0 0 0 0 0 0 0 0 127 0" result="hardAlpha"/>
<feOffset dx="2" dy="2"/>
<feComposite in2="hardAlpha" operator="out"/>
<feColorMatrix type="matrix" values="0 0 0 0 0.827451 0 0 0 0 0.329412 0 0 0 0 0 0 0 0 1 0"/>
<feBlend mode="normal" in2="BackgroundImageFix" result="effect1_dropShadow_284_105"/>
<feBlend mode="normal" in="SourceGraphic" in2="effect1_dropShadow_284_105" result="shape"/>
</filter>
<filter id="filter2_d_284_105" x="264" y="23.047" width="112" height="66" filterUnits="userSpaceOnUse" color-interpolation-filters="sRGB">
<feFlood flood-opacity="0" result="BackgroundImageFix"/>
<feColorMatrix in="SourceAlpha" type="matrix" values="0 0 0 0 0 0 0 0 0 0 0 0 0 0 0 0 0 0 127 0" result="hardAlpha"/>
<feOffset dx="2" dy="2"/>
<feComposite in2="hardAlpha" operator="out"/>
<feColorMatrix type="matrix" values="0 0 0 0 0.827451 0 0 0 0 0.329412 0 0 0 0 0 0 0 0 1 0"/>
<feBlend mode="normal" in2="BackgroundImageFix" result="effect1_dropShadow_284_105"/>
<feBlend mode="normal" in="SourceGraphic" in2="effect1_dropShadow_284_105" result="shape"/>
</filter>
<filter id="filter3_d_284_105" x="280" y="106.047" width="94" height="32" filterUnits="userSpaceOnUse" color-interpolation-filters="sRGB">
<feFlood flood-opacity="0" result="BackgroundImageFix"/>
<feColorMatrix in="SourceAlpha" type="matrix" values="0 0 0 0 0 0 0 0 0 0 0 0 0 0 0 0 0 0 127 0" result="hardAlpha"/>
<feOffset dx="2" dy="2"/>
<feComposite in2="hardAlpha" operator="out"/>
<feColorMatrix type="matrix" values="0 0 0 0 0.827451 0 0 0 0 0.329412 0 0 0 0 0 0 0 0 1 0"/>
<feBlend mode="normal" in2="BackgroundImageFix" result="effect1_dropShadow_284_105"/>
<feBlend mode="normal" in="SourceGraphic" in2="effect1_dropShadow_284_105" result="shape"/>
</filter>
<linearGradient id="paint0_linear_284_105" x1="157" y1="93.547" x2="269.275" y2="292.392" gradientUnits="userSpaceOnUse">
<stop stop-color="#F39C12"/>
<stop offset="0.961958" stop-color="#F39C12" stop-opacity="0"/>
</linearGradient>
<linearGradient id="paint1_linear_284_105" x1="206.5" y1="152.047" x2="349.407" y2="288.751" gradientUnits="userSpaceOnUse">
<stop offset="0.117474" stop-color="#F39C12"/>
<stop offset="1" stop-color="#F39C12" stop-opacity="0"/>
</linearGradient>
</defs>
</svg>
