<svg width="44" height="37" viewBox="0 0 44 37" fill="none" xmlns="http://www.w3.org/2000/svg">
<path d="M42.3092 3.4121C42.2569 3.34893 42.1872 3.31283 42.1088 3.30381C41.0026 3.17747 39.905 3.06918 38.8423 2.97894C38.8336 2.08555 38.7987 1.18314 38.7203 0.289749C38.7116 0.127314 38.5723 0.000976562 38.4155 0.000976562H36.3336C35.9068 0.000976562 35.4886 0.000976562 35.0618 0.000976562C34.6611 0.000976562 34.2517 0.000976562 33.851 0.000976562C33.459 0.000976562 33.0583 0.000976562 32.6664 0.000976562H30.2448C30.1577 0.000976562 30.0793 0.0370731 30.027 0.100242C29.966 0.163411 29.9399 0.244628 29.9399 0.33487L30.0444 2.42847C22.0567 2.13067 13.9992 2.41042 6.07242 3.26771C4.48706 3.42112 2.96268 3.66478 1.83899 4.71158C0.401717 6.04715 0.175237 8.22196 0.149105 10.3697C0.131683 11.7955 0.131683 13.2665 0.157815 14.8457C0.227501 19.457 0.488824 24.1405 0.741436 28.6797L0.767568 29.0948C0.845965 30.3401 0.976627 31.7659 1.56025 32.9752C1.69091 33.2369 1.83028 33.4715 1.98707 33.6971C3.3024 35.538 5.64559 36.0795 7.77102 36.3682C11.3773 36.8555 15.0271 36.9999 18.6595 36.9999C21.0636 36.9999 23.4504 36.9368 25.811 36.8826L37.3963 36.5848C38.5984 36.5578 40.236 36.5126 41.412 35.5471C42.0478 35.0327 42.4921 34.3107 42.7708 33.3542C43.067 32.3525 43.1454 31.2245 43.1802 30.1596L43.8597 9.35901C43.9119 7.42784 43.851 5.21693 42.3092 3.4121ZM37.7796 0.632666H38.1367C38.189 1.39069 38.2238 2.15775 38.2325 2.9248C38.0583 2.90675 37.8841 2.89772 37.7099 2.87968C37.7186 2.13067 37.7447 1.38167 37.7796 0.632666ZM37.1698 0.632666C37.135 1.36362 37.1088 2.1036 37.1001 2.83456C36.9521 2.82553 36.804 2.80748 36.6559 2.79846C36.6559 2.07653 36.6472 1.3546 36.6472 0.632666H37.1698ZM35.3667 0.623642C35.5845 0.623642 35.8109 0.623642 36.0374 0.623642C36.0374 1.32752 36.0461 2.04043 36.0461 2.74431C35.8109 2.72627 35.5845 2.70822 35.3493 2.69017L35.3667 0.623642ZM34.7569 0.623642L34.7395 2.65407C34.5566 2.64505 34.3824 2.627 34.1995 2.61798C34.1907 1.95019 34.1733 1.2824 34.1646 0.623642C34.3562 0.623642 34.5566 0.623642 34.7569 0.623642ZM33.5549 0.623642C33.5636 1.27338 33.581 1.93214 33.5897 2.58188C33.3981 2.57286 33.2151 2.56383 33.0235 2.54578L32.9799 0.623642C33.1716 0.623642 33.3632 0.623642 33.5549 0.623642ZM32.3702 0.623642L32.4137 2.51871C32.2482 2.50969 32.0914 2.50066 31.9259 2.49164L31.8737 0.623642H32.3702ZM31.2639 0.623642L31.3162 2.46457C31.1071 2.45554 30.8894 2.44652 30.6542 2.43749L30.5671 0.623642H31.2639ZM41.0287 35.0507C40.0879 35.8178 38.8162 35.908 37.3789 35.9441L25.7936 36.2419C19.8964 36.3953 13.7989 36.5487 7.84941 35.7366C5.85465 35.4658 3.65954 34.9695 2.47488 33.3181C2.44003 33.273 2.4139 33.2369 2.38777 33.1917C9.97484 33.7873 17.6229 34.0942 25.2622 34.0942C30.8632 34.0942 36.4643 33.9317 42.0391 33.6069C41.7952 34.2205 41.4642 34.6988 41.0287 35.0507ZM42.5618 30.1416C42.5269 31.0891 42.466 32.0818 42.2395 32.9571C28.8946 33.7422 15.3668 33.5978 2.03063 32.524C1.6038 31.5674 1.47314 30.4484 1.39474 29.4197C8.67694 30.3762 16.0114 30.8635 23.3458 30.8635C29.7657 30.8635 36.1855 30.4935 42.5705 29.7626L42.5618 30.1416ZM42.5966 29.1309C28.8946 30.7191 15.0184 30.6018 1.35119 28.788L1.34248 28.6436C1.09858 24.2218 0.845965 19.6555 0.767568 15.1525C4.19961 15.1254 7.64907 15.0713 11.0463 14.9991C11.0027 15.1796 10.9592 15.3601 10.9243 15.5315C10.4365 17.968 10.6543 20.5038 11.5428 22.6606C13.3111 26.929 17.6664 29.8438 22.1263 29.8438C22.4138 29.8438 22.7013 29.8348 22.9887 29.8077C27.7448 29.4016 32.0218 25.6295 33.1629 20.8287C33.6681 18.708 33.6594 16.3708 33.1542 14.232C36.473 14.0696 39.8179 13.8891 43.1018 13.6906L42.5966 29.1309ZM14.6438 9.68388C16.7605 7.57223 19.7222 6.43519 22.6838 6.43519C24.1734 6.43519 25.6716 6.72396 27.0566 7.31955C32.1698 9.53046 33.7117 15.8474 32.5705 20.6662C31.4904 25.2144 27.4486 28.788 22.9452 29.167C22.6751 29.1941 22.4051 29.2031 22.1351 29.2031C17.9103 29.2031 13.7814 26.4507 12.109 22.4079C10.3755 18.2297 11.447 12.8784 14.6438 9.68388ZM43.2412 9.34096L43.1193 13.0409C39.7743 13.2484 36.3771 13.4289 32.9887 13.5913C32.9277 13.3657 32.858 13.1491 32.7796 12.9326C31.7779 10.0087 29.8789 7.861 27.2831 6.74201C22.9364 4.86499 17.5619 5.88471 14.217 9.23267C12.8407 10.6043 11.8041 12.3911 11.2118 14.3584C7.76231 14.4306 4.24316 14.4847 0.750147 14.5118C0.732725 13.0589 0.732725 11.6963 0.750147 10.3697C0.776279 8.36635 0.976626 6.35397 2.2484 5.17181C3.23271 4.25135 4.64386 4.03477 6.13339 3.87233C11.9957 3.24064 17.9452 2.9248 23.8685 2.9248C26.0288 2.9248 28.1977 2.96992 30.3493 3.05114C30.8023 3.06918 31.2117 3.08723 31.6124 3.10528C31.9782 3.12333 32.3441 3.14138 32.7099 3.15942C33.1019 3.17747 33.4852 3.20455 33.8772 3.23162C34.2604 3.24967 34.635 3.27674 35.0183 3.30381C35.4538 3.33088 35.8893 3.36698 36.3249 3.39405C36.6733 3.42112 37.0217 3.4482 37.3789 3.47527C37.7622 3.50234 38.1367 3.53844 38.52 3.57453C39.6263 3.6738 40.7761 3.79111 41.9346 3.91745C43.2499 5.53277 43.3022 7.48199 43.2412 9.34096Z" fill="#252729"/>
</svg>
